<?xml version="1.0" standalone="no"?>
<!DOCTYPE svg PUBLIC "-//W3C//DTD SVG 20010904//EN"
 "http://www.w3.org/TR/2001/REC-SVG-20010904/DTD/svg10.dtd">
<svg version="1.0" xmlns="http://www.w3.org/2000/svg"
 width="1200.000000pt" height="1506.000000pt" viewBox="0 0 1200.000000 1506.000000"
 preserveAspectRatio="xMidYMid meet">

<g transform="translate(0.000000,1506.000000) scale(0.100000,-0.100000)"
fill="#ffffff" stroke="none">
<path d="M6506 15049 c-181 -19 -417 -78 -601 -150 -252 -99 -651 -314 -928
-500 -1024 -689 -1912 -1742 -2508 -2974 -213 -441 -351 -801 -414 -1083 -233
-1045 -177 -1931 162 -2572 192 -364 521 -717 913 -980 260 -175 613 -352 905
-456 41 -15 75 -30 75 -34 0 -4 -42 -19 -92 -35 -402 -121 -977 -349 -1363
-540 -181 -89 -495 -260 -495 -269 0 -2 114 54 253 124 496 249 1164 516 1538
614 l129 35 -7 -27 c-5 -15 -7 -56 -7 -92 2 -81 32 -163 84 -229 l39 -49 -97
-78 c-453 -362 -942 -833 -1277 -1229 -47 -56 -33 -44 45 40 425 453 868 856
1306 1187 l60 46 80 -55 c183 -127 463 -237 744 -293 123 -24 373 -60 420 -60
7 0 11 -2 8 -5 -6 -6 -504 -125 -524 -125 -7 0 -44 30 -81 66 -141 138 -365
254 -490 254 -50 0 -63 -21 -63 -103 -1 -146 -36 -336 -91 -481 -19 -53 -27
-61 -112 -118 -51 -34 -166 -106 -257 -160 -178 -106 -212 -135 -231 -198 -12
-40 -11 -42 21 -75 19 -19 58 -44 88 -55 59 -22 199 -39 327 -40 118 0 120 -2
139 -74 26 -96 17 -92 149 -61 64 15 123 25 131 22 22 -9 39 -111 33 -197 -6
-94 -51 -220 -112 -315 -24 -38 -40 -71 -34 -73 14 -5 107 27 174 61 207 103
387 295 464 497 17 44 31 88 31 99 0 16 10 20 66 26 63 6 164 -1 164 -13 0
-15 -120 -161 -231 -281 -276 -298 -331 -368 -399 -501 -61 -122 -61 -119 7
-114 90 8 98 -5 38 -66 -71 -73 -155 -133 -355 -255 -314 -192 -475 -316 -513
-397 -15 -31 -30 -40 -168 -97 -440 -182 -811 -292 -1811 -536 -374 -91 -521
-132 -675 -186 -538 -190 -762 -307 -1002 -520 -126 -112 -155 -163 -156 -274
0 -95 16 -128 84 -174 156 -106 333 -159 671 -200 156 -19 325 -27 1065 -51
1225 -40 1796 -86 2450 -196 225 -38 412 -79 590 -130 176 -51 279 -94 340
-143 49 -40 102 -113 110 -152 8 -36 26 -33 37 6 12 47 -27 110 -104 168 -150
114 -632 257 -1163 346 -241 41 -606 81 -997 111 -76 6 -143 12 -150 15 -51
17 -639 60 -1188 85 -539 25 -814 51 -1145 106 -274 46 -388 95 -434 186 l-20
41 21 41 c53 103 232 243 454 354 407 204 788 323 1649 516 774 173 1086 259
1420 391 85 34 120 44 129 36 6 -6 43 -75 81 -153 82 -167 73 -161 270 -181
l120 -13 205 -166 c113 -92 243 -205 289 -251 l84 -85 -69 -8 c-92 -9 -396 2
-564 21 -165 19 -434 64 -657 110 -93 19 -215 41 -273 50 -58 9 -226 38 -375
65 -431 77 -501 85 -755 85 -241 0 -303 -8 -474 -62 -152 -48 -425 -197 -521
-286 -65 -58 -125 -157 -125 -202 0 -38 84 -95 140 -95 11 0 32 -14 47 -31 16
-17 41 -38 56 -45 45 -24 307 -34 844 -34 520 0 642 3 1628 50 341 16 730 32
865 35 274 6 538 22 618 37 70 13 122 57 122 102 0 18 -12 51 -29 77 -32 49
-284 307 -519 533 l-154 147 31 35 c19 21 31 46 31 63 0 23 -8 32 -50 55 -126
68 -274 215 -239 237 52 33 253 90 404 115 135 21 580 30 740 15 458 -45 892
-264 1262 -639 102 -103 230 -258 300 -363 44 -66 47 -68 102 -80 31 -6 84 -9
121 -5 l66 6 165 -168 c91 -92 207 -213 258 -269 80 -87 98 -103 135 -111 25
-5 139 -5 281 0 342 14 1615 2 2395 -21 872 -26 1062 -17 1217 59 103 51 124
100 82 186 -39 82 -247 244 -414 324 -189 90 -352 132 -590 149 -467 35 -826
-8 -1755 -214 -572 -126 -746 -158 -1020 -189 l-125 -14 -74 72 c-40 39 -124
132 -186 206 l-113 135 19 24 c10 13 19 28 19 33 0 6 -45 57 -100 115 -250
262 -417 513 -523 783 -52 133 -73 211 -64 234 4 9 31 28 60 40 29 13 58 30
64 37 28 34 254 637 331 884 101 322 157 539 217 833 24 122 37 166 51 177 39
29 302 175 376 209 179 81 384 136 510 136 72 0 84 8 147 103 18 26 33 47 34
47 1 0 25 -7 52 -15 78 -24 210 -34 305 -24 83 9 205 42 215 59 3 4 -24 29
-61 55 -72 52 -204 175 -204 190 0 6 28 28 61 50 101 67 167 153 188 245 9 41
9 42 -33 69 -24 14 -75 40 -115 56 -65 26 -161 94 -161 115 0 4 28 17 63 30
34 12 132 50 217 83 l155 61 215 -27 c118 -15 327 -45 464 -67 137 -22 251
-38 253 -36 2 2 -22 8 -54 14 -32 6 -143 26 -248 46 -104 19 -260 47 -345 61
-85 14 -163 29 -174 33 -13 6 36 33 195 106 680 314 1126 571 1459 840 102 82
280 256 350 341 128 156 241 361 262 475 22 115 -21 243 -113 344 -76 83 -303
212 -794 448 -110 54 -247 128 -305 166 -380 248 -673 619 -1001 1265 l-100
198 75 149 c132 261 276 508 528 903 283 444 385 655 424 881 17 97 14 226 -7
301 -17 60 -108 146 -184 175 -56 21 -71 22 -240 17 -204 -6 -294 -22 -488
-87 -202 -68 -404 -169 -687 -346 l-165 -102 -19 51 c-113 302 -473 1182 -532
1297 -266 526 -639 936 -1031 1134 -190 95 -475 135 -757 105z m389 -74 c172
-30 393 -119 540 -218 189 -127 430 -386 590 -632 241 -373 435 -827 860
-2020 307 -860 444 -1200 656 -1630 128 -261 252 -477 404 -706 147 -221 222
-315 341 -429 198 -190 351 -288 834 -532 543 -275 607 -318 675 -453 37 -74
39 -146 6 -255 -64 -208 -192 -383 -459 -621 -400 -356 -1003 -703 -1785
-1025 l-108 -45 -167 21 c-92 12 -174 23 -183 26 -15 4 -15 9 3 57 11 29 55
120 99 203 43 83 79 161 79 173 0 12 -12 34 -26 48 -25 25 -29 26 -107 20 -45
-3 -120 -18 -167 -32 -91 -29 -433 -186 -464 -213 -10 -10 -33 -47 -52 -84
-53 -105 -46 -103 -291 -83 -115 10 -209 18 -210 19 -2 1 40 56 93 122 53 65
148 197 211 292 78 117 122 174 137 177 63 12 482 37 1051 61 610 25 661 31
304 33 -320 1 -645 -9 -1059 -34 -135 -8 -251 -15 -257 -15 -22 0 -14 37 26
127 57 129 118 327 149 482 l26 136 86 1 c191 1 357 76 525 235 265 252 405
619 405 1062 0 454 -157 924 -384 1151 -89 89 -151 120 -241 121 -101 0 -182
-42 -291 -149 -117 -116 -195 -243 -387 -629 -92 -186 -190 -374 -218 -417
l-50 -78 -122 5 c-67 2 -293 13 -502 24 -723 37 -1066 35 -1395 -7 -157 -20
-548 -87 -722 -124 -289 -61 -688 -173 -695 -195 -10 -34 9 -36 293 -28 153 5
280 8 281 8 2 -1 -59 -26 -135 -55 -506 -199 -1025 -536 -1446 -940 -229 -220
-452 -470 -442 -495 10 -27 40 -16 101 38 213 190 485 372 766 513 138 69 409
187 415 181 2 -2 -45 -60 -105 -129 -182 -211 -292 -361 -375 -511 -31 -55
-36 -70 -26 -82 7 -8 17 -15 23 -15 6 0 69 57 141 128 114 111 218 204 279
252 17 12 18 11 13 -11 -11 -49 -27 -394 -35 -740 -8 -343 -9 -358 -31 -402
-23 -45 -101 -153 -171 -237 l-36 -43 -48 12 c-86 22 -297 102 -420 159 -766
359 -1347 949 -1566 1591 -55 162 -106 438 -129 696 -13 153 -13 534 0 690 77
913 427 1833 1065 2800 289 437 582 800 950 1173 642 653 1307 1104 2010 1362
217 80 361 118 510 134 70 7 267 -3 360 -19z m3414 -2035 c74 -13 146 -46 189
-90 76 -76 72 -322 -9 -527 -56 -141 -183 -380 -293 -553 -219 -342 -347 -556
-623 -1048 -13 -23 -28 -40 -32 -37 -31 18 -276 602 -399 950 -169 475 -263
747 -260 750 2 1 39 29 84 62 314 231 688 403 1019 467 189 38 230 41 324 26z
m-1202 -2522 c42 -15 73 -37 112 -77 49 -51 111 -132 111 -145 0 -3 -26 7 -57
21 -32 15 -81 29 -109 31 -44 4 -61 -1 -115 -29 -273 -143 -675 -841 -729
-1263 -11 -88 0 -138 40 -178 34 -34 76 -36 138 -8 23 10 42 16 42 12 0 -3
-16 -42 -35 -87 -105 -245 -83 -396 60 -413 l43 -4 -13 -39 c-18 -49 -35 -174
-35 -249 0 -67 -63 -330 -116 -483 -20 -56 -58 -148 -86 -204 -45 -94 -52
-103 -81 -107 -18 -3 -174 -17 -347 -31 -289 -24 -602 -57 -657 -70 -20 -5
-23 -1 -23 22 0 14 14 56 31 93 l30 66 102 49 c127 61 257 148 322 214 27 28
46 51 42 51 -4 0 -42 -22 -85 -48 -173 -108 -339 -187 -465 -223 -40 -11 -146
-30 -237 -44 -347 -51 -465 -89 -608 -198 -48 -37 -142 -147 -142 -168 0 -18
30 -8 64 22 37 32 69 35 74 7 2 -12 -22 -26 -105 -58 -59 -22 -119 -50 -133
-60 -23 -18 -24 -20 -8 -36 15 -15 21 -15 90 14 107 44 188 66 200 54 16 -16
38 -121 38 -183 l0 -56 -161 -7 c-176 -8 -191 -11 -187 -35 3 -14 26 -16 176
-19 l172 -2 0 -34 c0 -51 -44 -213 -78 -288 -95 -209 -262 -356 -460 -405
-102 -25 -323 -23 -426 5 -202 55 -344 160 -445 326 -34 56 -40 87 -27 119 6
12 4 17 -7 17 -8 0 -25 12 -36 28 -20 26 -21 27 -36 8 -8 -11 -15 -27 -15 -35
0 -10 -26 -27 -68 -45 -125 -54 -296 -150 -451 -254 l-155 -102 -27 26 c-14
14 -39 49 -55 77 -50 93 -32 224 37 266 30 18 476 133 626 162 l63 12 80 -77
c135 -126 283 -186 460 -187 133 0 212 31 329 130 143 120 253 352 222 468
-14 53 -49 103 -86 124 -39 23 -188 49 -279 49 -88 0 -241 -23 -321 -48 l-60
-18 -1 150 c-1 227 -43 402 -132 556 -31 55 -46 69 -91 93 -49 24 -101 36
-101 22 0 -3 5 -13 11 -23 9 -14 5 -27 -20 -67 -44 -72 -88 -215 -101 -329
-23 -195 20 -430 98 -540 28 -40 32 -53 23 -65 -28 -39 -51 -99 -51 -137 l0
-42 -97 -21 c-156 -36 -496 -119 -517 -127 -11 -4 15 37 61 98 95 125 149 230
161 313 5 33 6 143 3 245 -7 202 1 458 19 615 10 96 35 251 46 287 11 38 495
381 779 553 281 170 692 364 1018 479 l127 46 0 -25 c0 -31 8 -31 50 0 69 51
132 25 210 -86 23 -33 44 -58 47 -56 8 9 -19 92 -41 127 -13 19 -35 47 -50 62
-15 14 -23 29 -18 32 17 10 285 73 382 90 52 9 154 23 225 31 209 25 725 20
725 -7 0 -5 -14 -30 -31 -54 -17 -25 -28 -48 -25 -51 12 -12 91 33 136 77 111
109 203 256 325 525 158 346 225 466 336 601 53 64 154 154 204 182 31 18 89
14 152 -10z m121 -268 c49 -22 138 -103 188 -172 104 -141 182 -582 156 -877
-33 -374 -150 -651 -359 -852 -164 -157 -269 -210 -429 -217 -121 -5 -134 3
-134 78 0 85 64 195 192 327 68 71 105 118 102 127 -3 8 -17 22 -31 31 l-25
17 -104 -106 c-106 -109 -147 -136 -208 -136 -43 0 -51 21 -44 114 10 120 97
295 240 483 64 85 77 107 68 122 -28 53 -61 35 -217 -113 -126 -121 -188 -161
-200 -130 -10 27 5 227 22 284 55 184 206 500 326 680 127 191 307 360 384
360 16 0 49 -9 73 -20z m-4164 -2587 c39 -78 85 -220 101 -311 20 -113 20
-115 -5 -102 -12 6 -35 10 -52 8 -75 -7 -109 -181 -59 -308 11 -30 21 -59 21
-65 0 -5 -16 -21 -35 -34 -34 -23 -36 -23 -55 -6 -29 26 -77 128 -96 205 -33
130 -13 422 38 544 53 126 101 149 142 69z m3196 -429 c0 -3 -22 -43 -49 -88
-61 -100 -155 -227 -269 -363 l-86 -103 -76 0 c-41 0 -189 5 -327 12 l-253 12
0 127 c0 115 15 277 26 288 12 13 513 74 889 110 121 11 145 12 145 5z m942
-261 c-3 -16 -41 -98 -85 -183 -205 -398 -186 -509 112 -658 l117 -59 -12 -36
c-27 -79 -117 -180 -191 -215 l-35 -17 -50 54 c-27 29 -58 72 -69 95 l-21 41
24 -27 c29 -33 65 -51 85 -43 14 5 11 11 -15 38 -17 18 -36 46 -42 62 -10 25
-9 32 6 40 30 18 69 53 64 58 -3 3 -37 -3 -75 -14 -38 -10 -97 -22 -130 -25
-61 -6 -62 -6 -73 22 -6 16 -14 56 -17 90 l-7 61 37 19 c20 10 35 24 33 29 -2
6 -32 10 -68 9 -95 0 -161 -39 -323 -190 -73 -68 -136 -122 -142 -120 -5 1
-11 19 -13 40 -4 45 49 163 106 239 57 75 107 103 194 110 40 3 101 14 136 25
64 20 153 73 134 80 -6 2 -50 -8 -98 -22 -98 -29 -154 -33 -154 -13 0 19 52
98 96 147 20 22 68 64 106 92 37 28 68 52 68 55 0 8 -57 -11 -104 -34 -66 -33
-147 -111 -213 -205 -33 -47 -64 -80 -81 -86 -15 -6 -35 -13 -46 -18 -17 -7
-18 -3 -12 52 11 87 26 143 53 199 41 84 86 122 223 187 227 109 337 146 436
147 51 1 51 1 46 -26z m-1630 -346 c102 -7 190 -16 195 -20 10 -10 -173 -190
-240 -236 l-48 -32 7 28 c4 15 20 66 35 113 16 47 29 89 29 95 -1 21 -79 -77
-113 -142 -44 -86 -70 -172 -102 -348 -56 -309 -48 -289 -137 -377 -134 -132
-319 -243 -531 -317 -134 -47 -165 -41 -187 37 -14 51 -15 49 28 57 20 4 86
26 146 50 308 124 502 314 538 527 5 35 10 167 10 293 -1 127 1 242 4 258 l6
27 86 -1 c48 0 171 -6 274 -12z m-437 -194 c11 -286 -1 -396 -56 -510 -33 -70
-121 -157 -214 -212 -81 -49 -199 -111 -211 -111 -11 0 7 280 22 359 19 92 51
166 94 214 18 21 34 36 36 34 2 -2 -3 -35 -11 -73 -16 -76 -20 -190 -6 -198 4
-3 28 63 51 147 49 175 87 276 136 364 35 63 129 183 144 183 4 0 11 -89 15
-197z m1009 161 l69 -6 -59 -32 c-73 -40 -169 -100 -399 -252 -280 -185 -335
-208 -320 -132 7 36 13 42 163 154 57 42 149 123 205 180 l102 103 85 -5 c47
-2 116 -7 154 -10z m1126 -102 l75 -8 -60 -31 c-71 -36 -198 -83 -226 -83 -18
0 -19 5 -13 53 12 94 13 95 86 85 34 -4 97 -11 138 -16z m-4316 -195 c9 -36
82 -144 139 -204 188 -199 544 -301 813 -233 87 22 219 82 291 131 l47 32 29
-34 c90 -106 151 -221 191 -362 20 -69 23 -92 14 -106 -10 -16 -16 -12 -57 42
-63 82 -175 157 -198 133 -4 -3 11 -24 32 -46 21 -22 36 -42 33 -46 -12 -11
-276 -34 -473 -40 -519 -16 -977 73 -1325 258 -115 61 -180 105 -180 121 0 7
22 25 48 41 26 16 111 69 190 118 128 79 377 217 393 218 4 0 9 -10 13 -23z
m3373 -474 c20 -16 86 -53 146 -83 61 -31 114 -62 118 -70 4 -8 12 -62 17
-120 5 -58 12 -112 16 -120 5 -12 -15 -19 -107 -37 -203 -40 -409 -117 -631
-237 l-118 -65 7 92 c16 201 2 465 -26 482 -13 9 -17 -26 -23 -190 -20 -565
-179 -1206 -524 -2109 l-87 -229 -75 -35 c-434 -199 -967 -208 -1365 -22 -44
20 -163 93 -265 162 -301 204 -439 279 -614 333 l-86 28 21 36 c67 115 182
257 404 501 183 201 256 286 334 389 71 94 187 282 234 382 l31 67 140 46
c163 53 341 97 509 126 151 25 163 25 199 -5 39 -33 126 -37 193 -10 25 11 47
12 98 4 58 -9 70 -8 114 11 89 40 146 115 172 225 l12 51 102 57 c251 139 516
241 852 328 83 21 154 38 158 39 5 0 25 -12 44 -27z m-3836 -212 c100 -35 309
-169 369 -237 33 -38 69 -107 70 -132 0 -8 -31 15 -69 50 -75 68 -157 122
-222 145 -68 23 -65 10 12 -42 111 -76 175 -131 209 -180 16 -24 30 -46 30
-49 0 -3 -19 6 -42 20 -71 40 -162 64 -249 64 -43 0 -79 -4 -79 -8 0 -4 32
-13 71 -20 88 -15 154 -42 241 -99 89 -58 169 -155 181 -218 19 -101 19 -105
-3 -105 -36 0 -72 25 -150 104 -47 48 -95 86 -127 102 -37 17 -53 30 -53 44 0
16 -4 17 -32 10 -17 -5 -49 -22 -71 -37 -48 -33 -160 -174 -185 -234 -11 -24
-32 -57 -47 -72 -33 -32 -63 -30 -132 9 -51 30 -56 30 -50 2 4 -18 -5 -31 -44
-61 -44 -33 -71 -79 -56 -94 3 -3 23 8 44 25 65 51 109 68 143 55 17 -6 38 -9
49 -6 28 7 39 -23 32 -87 l-6 -55 -167 -3 c-179 -3 -321 12 -419 45 -49 16
-54 21 -57 50 -3 28 3 37 57 80 33 26 134 91 225 144 136 80 166 94 166 78 0
-26 9 -24 52 11 46 38 120 186 148 294 21 82 35 190 46 339 6 87 6 87 33 87
15 0 52 -8 82 -19z m1182 -678 c-68 -107 -187 -265 -276 -365 l-59 -68 -134 0
-135 0 7 78 c4 42 7 78 8 78 13 17 194 126 269 164 94 46 312 139 330 140 4 0
0 -12 -10 -27z m-715 -1512 c64 -32 227 -125 362 -205 362 -217 511 -286 709
-326 215 -44 608 -13 855 68 l84 27 38 -113 c88 -269 307 -627 536 -880 22
-24 38 -46 35 -49 -3 -2 -37 -9 -76 -14 -39 -4 -93 -18 -121 -30 -48 -21 -130
-96 -130 -120 0 -23 -41 25 -86 100 -25 41 -93 128 -150 192 -229 258 -472
446 -749 579 -317 153 -544 200 -959 200 -263 0 -386 -10 -562 -45 -178 -36
-408 -121 -466 -173 -27 -23 -22 -28 22 -24 44 4 56 -5 147 -115 l42 -51 -157
-4 c-136 -4 -168 -9 -240 -32 -46 -15 -85 -26 -85 -24 -1 2 -32 63 -69 136
-73 142 -83 188 -54 255 27 66 193 194 461 357 178 109 310 201 400 279 44 39
83 71 88 71 4 0 60 -27 125 -59z m-1203 -814 c-330 -151 -692 -256 -1585 -461
-807 -186 -1169 -300 -1555 -489 -336 -165 -515 -326 -515 -463 0 -37 6 -46
55 -93 72 -68 126 -92 320 -140 280 -70 472 -91 1110 -120 162 -8 164 -8 55
-9 -163 -2 -630 16 -763 28 -264 26 -539 85 -664 144 -39 19 -90 53 -113 76
l-43 43 5 66 c12 162 110 266 413 441 212 123 471 233 780 333 241 78 450 134
915 247 863 208 1178 301 1518 449 l87 37 10 -35 c11 -36 10 -36 -30 -54z
m711 -283 c263 -215 834 -781 834 -826 0 -27 -75 -37 -351 -48 -254 -10 -706
-31 -1269 -60 -923 -48 -1605 -65 -1994 -50 -259 9 -334 19 -357 46 -38 46 76
164 238 247 207 106 381 153 603 164 181 9 114 26 -110 27 -153 1 -186 -2
-265 -23 -196 -51 -354 -140 -489 -274 -72 -71 -82 -78 -109 -73 -80 16 -75
46 26 142 125 120 250 197 439 270 289 112 500 121 1051 44 254 -36 331 -49
817 -145 584 -115 795 -142 1170 -152 222 -6 248 -8 272 -26 86 -64 31 89 -71
196 -72 76 -237 221 -421 372 -80 65 -164 135 -188 156 l-43 38 38 6 c21 4 45
8 53 10 37 9 85 -6 126 -41z m3225 -596 c123 -156 269 -307 358 -372 70 -51
81 -55 81 -27 0 16 9 21 43 25 342 47 562 88 1097 206 756 167 973 199 1410
207 238 5 303 3 395 -12 142 -21 291 -59 385 -96 114 -46 118 -60 12 -39 -113
21 -307 31 -408 21 -97 -10 -212 -35 -226 -49 -4 -4 100 -7 230 -8 254 0 338
-10 509 -60 143 -41 228 -81 282 -132 108 -102 70 -149 -154 -187 -238 -41
-575 -42 -1230 -3 -99 6 -643 12 -1210 13 -566 2 -1085 4 -1151 4 l-121 1
-145 163 c-80 89 -207 227 -282 307 l-136 145 43 12 c23 6 58 11 78 12 34 1
40 -5 140 -131z m-331 47 c7 -9 10 -19 6 -22 -9 -10 -67 -9 -91 1 -18 7 -16
10 15 21 47 18 55 18 70 0z"/>
<path d="M6370 8681 c0 -4 14 -17 30 -29 17 -13 30 -26 30 -30 0 -4 -20 -18
-45 -31 -116 -61 -204 -194 -270 -404 l-37 -119 5 -176 c3 -121 11 -196 22
-237 39 -140 114 -250 215 -315 40 -26 60 -32 102 -31 32 0 63 -6 77 -16 19
-12 25 -13 32 -2 4 8 39 48 76 89 136 150 323 307 530 443 51 33 91 62 89 65
-12 12 -289 -145 -359 -204 -16 -13 -33 -24 -38 -24 -5 0 -9 76 -9 178 0 258
-34 458 -98 577 -39 73 -152 187 -219 223 -61 32 -133 55 -133 43z m204 -163
c70 -70 123 -169 150 -278 17 -72 41 -268 33 -276 -3 -3 -19 2 -36 10 -41 22
-45 21 -91 -20 -49 -45 -60 -81 -60 -209 0 -115 11 -162 46 -205 l25 -30 -45
-59 c-93 -120 -128 -133 -228 -79 -169 90 -247 303 -227 623 13 205 76 364
186 473 63 62 139 112 171 112 8 0 42 -28 76 -62z"/>
<path d="M4756 8020 c-53 -56 -80 -112 -95 -196 -12 -65 -14 -229 -3 -289 6
-32 10 -14 20 97 7 76 21 166 32 200 23 74 68 150 104 173 23 15 28 15 72 -4
26 -12 49 -19 52 -16 8 8 -39 55 -70 71 -44 23 -63 17 -112 -36z"/>
<path d="M5785 7159 c-70 -10 -143 -33 -206 -65 -47 -23 -153 -103 -147 -109
2 -3 44 16 93 40 106 52 233 90 383 114 96 16 103 18 67 24 -50 8 -113 7 -190
-4z"/>
<path d="M10483 6223 c9 -2 23 -2 30 0 6 3 -1 5 -18 5 -16 0 -22 -2 -12 -5z"/>
<path d="M10538 6213 c6 -2 18 -2 25 0 6 3 1 5 -13 5 -14 0 -19 -2 -12 -5z"/>
<path d="M10598 6203 c7 -3 16 -2 19 1 4 3 -2 6 -13 5 -11 0 -14 -3 -6 -6z"/>
<path d="M2714 4408 l-19 -23 23 19 c21 18 27 26 19 26 -2 0 -12 -10 -23 -22z"/>
</g>
</svg>
